<?xml version="1.0" encoding="UTF-8" standalone="no"?>
<!DOCTYPE svg PUBLIC "-//W3C//DTD SVG 1.1//EN"
 "http://www.w3.org/Graphics/SVG/1.1/DTD/svg11.dtd">
<!-- Generated by graphviz version 2.40.1 (20161225.0304)
 -->
<!-- Title: %0 Pages: 1 -->
<svg width="238pt" height="98pt"
 viewBox="0.00 0.00 238.44 98.00" xmlns="http://www.w3.org/2000/svg" xmlns:xlink="http://www.w3.org/1999/xlink">
<g id="graph0" class="graph" transform="scale(1 1) rotate(0) translate(4 94)">
<title>%0</title>
<polygon fill="#ffffff" stroke="transparent" points="-4,4 -4,-94 234.4392,-94 234.4392,4 -4,4"/>
<!-- start -->
<g id="node1" class="node">
<title>start</title>
<ellipse fill="#000000" stroke="#000000" cx="9" cy="-45" rx="9" ry="9"/>
</g>
<!-- foo -->
<g id="node2" class="node">
<title>foo</title>
<ellipse fill="none" stroke="#000000" cx="95.7812" cy="-72" rx="27" ry="18"/>
<text text-anchor="middle" x="95.7812" y="-67.8" font-family="Times,serif" font-size="14.00" fill="#000000">foo</text>
</g>
<!-- start&#45;&gt;foo -->
<g id="edge1" class="edge">
<title>start&#45;&gt;foo</title>
<path fill="none" stroke="#000000" d="M17.6382,-47.6876C27.8631,-50.8688 45.5182,-56.3618 61.4625,-61.3225"/>
<polygon fill="#000000" stroke="#000000" points="60.499,-64.6882 71.0873,-64.3171 62.5786,-58.0042 60.499,-64.6882"/>
<text text-anchor="middle" x="43.3906" y="-61.2" font-family="Times,serif" font-size="14.00" fill="#000000">:t1</text>
</g>
<!-- bar -->
<g id="node3" class="node">
<title>bar</title>
<ellipse fill="none" stroke="#000000" cx="95.7812" cy="-18" rx="27" ry="18"/>
<text text-anchor="middle" x="95.7812" y="-13.8" font-family="Times,serif" font-size="14.00" fill="#000000">bar</text>
</g>
<!-- start&#45;&gt;bar -->
<g id="edge2" class="edge">
<title>start&#45;&gt;bar</title>
<path fill="none" stroke="#000000" d="M17.3718,-40.9189C22.634,-38.4601 29.6129,-35.3913 36,-33.2 43.692,-30.561 52.0807,-28.1502 60.0761,-26.0643"/>
<polygon fill="#000000" stroke="#000000" points="61.0597,-29.4262 69.9111,-23.6034 59.3605,-22.6355 61.0597,-29.4262"/>
<text text-anchor="middle" x="43.3906" y="-38.2" font-family="Times,serif" font-size="14.00" fill="#000000">:t2</text>
</g>
<!-- baz -->
<g id="node4" class="node">
<title>baz</title>
<ellipse fill="none" stroke="#000000" cx="202.0008" cy="-45" rx="24.3856" ry="24.3856"/>
<ellipse fill="none" stroke="#000000" cx="202.0008" cy="-45" rx="28.377" ry="28.377"/>
<text text-anchor="middle" x="202.0008" y="-40.8" font-family="Times,serif" font-size="14.00" fill="#000000">baz</text>
</g>
<!-- foo&#45;&gt;baz -->
<g id="edge3" class="edge">
<title>foo&#45;&gt;baz</title>
<path fill="none" stroke="#000000" d="M121.2234,-65.5328C134.0643,-62.2688 149.8989,-58.2438 164.1365,-54.6247"/>
<polygon fill="#000000" stroke="#000000" points="165.3262,-57.9337 174.1558,-52.0779 163.6017,-51.1494 165.3262,-57.9337"/>
<text text-anchor="middle" x="148.1718" y="-64.2" font-family="Times,serif" font-size="14.00" fill="#000000">:t3</text>
</g>
<!-- bar&#45;&gt;baz -->
<g id="edge4" class="edge">
<title>bar&#45;&gt;baz</title>
<path fill="none" stroke="#000000" d="M121.2234,-24.4672C134.0643,-27.7312 149.8989,-31.7562 164.1365,-35.3753"/>
<polygon fill="#000000" stroke="#000000" points="163.6017,-38.8506 174.1558,-37.9221 165.3262,-32.0663 163.6017,-38.8506"/>
<text text-anchor="middle" x="148.1718" y="-38.2" font-family="Times,serif" font-size="14.00" fill="#000000">:t4</text>
</g>
</g>
</svg>
