<?xml version="1.0" encoding="UTF-8" standalone="no"?>
<!DOCTYPE svg PUBLIC "-//W3C//DTD SVG 1.1//EN"
 "http://www.w3.org/Graphics/SVG/1.1/DTD/svg11.dtd">
<!-- Generated by graphviz version 2.40.1 (20161225.0304)
 -->
<!-- Title: %0 Pages: 1 -->
<svg width="400pt" height="142pt"
 viewBox="0.00 0.00 399.62 142.00" xmlns="http://www.w3.org/2000/svg" xmlns:xlink="http://www.w3.org/1999/xlink">
<g id="graph0" class="graph" transform="scale(1 1) rotate(0) translate(4 138)">
<title>%0</title>
<polygon fill="#ffffff" stroke="transparent" points="-4,4 -4,-138 395.6247,-138 395.6247,4 -4,4"/>
<!-- start -->
<g id="node1" class="node">
<title>start</title>
<ellipse fill="#000000" stroke="#000000" cx="9" cy="-72" rx="9" ry="9"/>
</g>
<!-- x -->
<g id="node2" class="node">
<title>x</title>
<ellipse fill="none" stroke="#000000" cx="239.7812" cy="-61" rx="27" ry="18"/>
<text text-anchor="middle" x="239.7812" y="-56.8" font-family="Times,serif" font-size="14.00" fill="#000000">x</text>
</g>
<!-- start&#45;&gt;x -->
<g id="edge1" class="edge">
<title>start&#45;&gt;x</title>
<path fill="none" stroke="#000000" d="M18.0469,-71.5688C48.4236,-70.1209 147.9327,-65.3779 202.7432,-62.7654"/>
<polygon fill="#000000" stroke="#000000" points="202.9313,-66.2605 212.7532,-62.2883 202.5979,-59.2684 202.9313,-66.2605"/>
<text text-anchor="middle" x="95.7812" y="-73.2" font-family="Times,serif" font-size="14.00" fill="#000000">:t1</text>
</g>
<!-- y -->
<g id="node3" class="node">
<title>y</title>
<ellipse fill="none" stroke="#000000" cx="167.7812" cy="-116" rx="27" ry="18"/>
<text text-anchor="middle" x="167.7812" y="-111.8" font-family="Times,serif" font-size="14.00" fill="#000000">y</text>
</g>
<!-- start&#45;&gt;y -->
<g id="edge2" class="edge">
<title>start&#45;&gt;y</title>
<path fill="none" stroke="#000000" d="M16.7912,-76.7166C22.0583,-79.7334 29.257,-83.5303 36,-86 67.2184,-97.4343 104.2493,-105.4015 131.095,-110.2368"/>
<polygon fill="#000000" stroke="#000000" points="130.7578,-113.7306 141.2099,-111.9975 131.9583,-106.8343 130.7578,-113.7306"/>
<text text-anchor="middle" x="43.3906" y="-94.2" font-family="Times,serif" font-size="14.00" fill="#000000">:t2</text>
</g>
<!-- z -->
<g id="node4" class="node">
<title>z</title>
<ellipse fill="none" stroke="#000000" cx="95.7812" cy="-18" rx="27" ry="18"/>
<text text-anchor="middle" x="95.7812" y="-13.8" font-family="Times,serif" font-size="14.00" fill="#000000">z</text>
</g>
<!-- start&#45;&gt;z -->
<g id="edge3" class="edge">
<title>start&#45;&gt;z</title>
<path fill="none" stroke="#000000" d="M13.9806,-64.4841C18.8735,-57.6063 26.9115,-47.5605 36,-41.2 43.5548,-35.9128 52.479,-31.6183 61.0956,-28.2276"/>
<polygon fill="#000000" stroke="#000000" points="62.3968,-31.4789 70.6039,-24.7787 60.0098,-24.8984 62.3968,-31.4789"/>
<text text-anchor="middle" x="43.3906" y="-46.2" font-family="Times,serif" font-size="14.00" fill="#000000">:t3</text>
</g>
<!-- finish -->
<g id="node5" class="node">
<title>finish</title>
<ellipse fill="none" stroke="#000000" cx="354.5936" cy="-61" rx="33.059" ry="33.059"/>
<ellipse fill="none" stroke="#000000" cx="354.5936" cy="-61" rx="37.0624" ry="37.0624"/>
<text text-anchor="middle" x="354.5936" y="-56.8" font-family="Times,serif" font-size="14.00" fill="#000000">finish</text>
</g>
<!-- x&#45;&gt;finish -->
<g id="edge6" class="edge">
<title>x&#45;&gt;finish</title>
<path fill="none" stroke="#000000" d="M266.9901,-61C278.9324,-61 293.3122,-61 306.9371,-61"/>
<polygon fill="#000000" stroke="#000000" points="307.1561,-64.5001 317.1561,-61 307.1561,-57.5001 307.1561,-64.5001"/>
<text text-anchor="middle" x="292.1718" y="-65.2" font-family="Times,serif" font-size="14.00" fill="#000000">:t6</text>
</g>
<!-- y&#45;&gt;finish -->
<g id="edge7" class="edge">
<title>y&#45;&gt;finish</title>
<path fill="none" stroke="#000000" d="M193.7814,-110.2007C220.5395,-104.0209 263.3177,-93.5511 299.5624,-82 303.1339,-80.8618 306.8109,-79.6189 310.4899,-78.3248"/>
<polygon fill="#000000" stroke="#000000" points="311.9555,-81.5164 320.1624,-74.8159 309.5683,-74.936 311.9555,-81.5164"/>
<text text-anchor="middle" x="239.7812" y="-109.2" font-family="Times,serif" font-size="14.00" fill="#000000">:t7</text>
</g>
<!-- z&#45;&gt;x -->
<g id="edge4" class="edge">
<title>z&#45;&gt;x</title>
<path fill="none" stroke="#000000" d="M122.2032,-22.8121C142.3597,-26.8129 170.67,-33.1469 194.7812,-41.2 199.1807,-42.6694 203.7402,-44.4072 208.1935,-46.2333"/>
<polygon fill="#000000" stroke="#000000" points="207.0997,-49.5726 217.6695,-50.3017 209.8614,-43.1404 207.0997,-49.5726"/>
<text text-anchor="middle" x="167.7812" y="-46.2" font-family="Times,serif" font-size="14.00" fill="#000000">:t4</text>
</g>
<!-- z&#45;&gt;finish -->
<g id="edge5" class="edge">
<title>z&#45;&gt;finish</title>
<path fill="none" stroke="#000000" d="M122.2858,-14.0887C156.2724,-9.9294 216.7895,-5.4241 266.7812,-17.2 282.9686,-21.0131 299.5791,-28.2868 313.9364,-35.8275"/>
<polygon fill="#000000" stroke="#000000" points="312.5646,-39.0663 323.0186,-40.7878 315.9198,-32.9228 312.5646,-39.0663"/>
<text text-anchor="middle" x="239.7812" y="-22.2" font-family="Times,serif" font-size="14.00" fill="#000000">:t5</text>
</g>
</g>
</svg>
